<svg width="16" height="16" viewBox="0 0 16 16" fill="none" xmlns="http://www.w3.org/2000/svg">
    <g clip-path="url(#cljpkbsp1a)">
        <path d="M8.994 7.951c-.09-.064-.15-.096-.197-.142L5.27 4.299c-.236-.235-.337-.502-.223-.824.182-.517.828-.658 1.235-.265.378.364.746.739 1.118 1.11l3.044 3.03c.409.408.41.817.004 1.222l-4.124 4.106c-.333.33-.787.35-1.096.05a.727.727 0 0 1-.05-1.002c.046-.055.1-.105.15-.155 1.155-1.151 2.31-2.302 3.467-3.452.045-.045.1-.084.2-.168z" fill="#C3CAD4"/>
    </g>
    <defs>
        <clipPath id="cljpkbsp1a">
            <path fill="#fff" d="M0 0h16v15.93H0z"/>
        </clipPath>
    </defs>
</svg>
