<svg width="168" height="48" viewBox="0 0 168 48" fill="none" xmlns="http://www.w3.org/2000/svg">
    <g clip-path="url(#62cufqzgka)">
        <mask id="api6xozzub" style="mask-type:luminance" maskUnits="userSpaceOnUse" x="8" y="3" width="34" height="21">
            <path d="M29.744 17.51c-9.593 3.798-19.673 2.678-21.635 2.33 0 0 1.698 2.087 7.472 3.061 4.174.696 9.607-.236 13.913-1.948 10.135-4.042 14.914-12.522 11.13-17.44 2.498 4.23-1.871 10.435-10.894 13.997" fill="#fff"/>
        </mask>
        <g mask="url(#api6xozzub)">
            <path d="M36.968-11.132 0 7.623l15.539 30.628 36.968-18.755L36.97-11.132z" fill="url(#5z4zqgd3cc)"/>
        </g>
        <mask id="p6diuat7wd" style="mask-type:luminance" maskUnits="userSpaceOnUse" x="20" y="0" width="21" height="15">
            <path d="M30.163.877c-4.014.765-7.102 2.727-8.542 4.528-1.44 1.802-1.392 3.68-.696 4.57 1.26 1.538 4.362 1.093 5.46-.785-1.39-.863 1.392-4.828 6.442-4.94 3.667-.076 5.176 2.206 4.738 4.362-.452 2.275-2.511 4.41-3.854 5.566a17.6 17.6 0 0 0 5.1-4.599c3.102-4.494.855-8.716-5.343-8.995h-.557c-.934.005-1.866.098-2.783.279" fill="#fff"/>
        </mask>
        <g mask="url(#p6diuat7wd)">
            <path d="M41.92.598H20.125v13.607H41.92V.598z" fill="url(#aiisntuece)"/>
        </g>
        <mask id="m0dmx6jhrf" style="mask-type:luminance" maskUnits="userSpaceOnUse" x="12" y="0" width="23" height="18">
            <path d="M14.7 7.875c-3.7 4.417-2.428 8.75 3.193 9.822 3.332.552 6.75.199 9.9-1.022 7.881-2.915 7.895-8.07 4.173-9.28-2.205-.696-4.681.361-5.565 1.794 1.67.995-.396 4.501-5.057 4.564-3.61.042-5.733-2.143-4.745-4.967 1.197-3.423 6.922-6.79 11.91-8.014-6.497 1.085-11.13 3.916-13.809 7.103z" fill="#fff"/>
        </mask>
        <g mask="url(#m0dmx6jhrf)">
            <path d="M35.68.772H10.993v17.482h24.689V.772z" fill="url(#c338330p4g)"/>
        </g>
        <path d="M8.607 40.835h-.355a7.721 7.721 0 1 1 2.345-.362 5 5 0 0 1 .11-1.391 6.463 6.463 0 1 0-2.455.48h.341c-.06.424-.06.855 0 1.28" fill="#0078C5"/>
        <path d="M27.354 40.48a7.73 7.73 0 0 0 2.596-13.314 7.73 7.73 0 0 0-12.606 5.008 7.33 7.33 0 0 1 1.259.216 6.45 6.45 0 1 1 8.849 6.699 5.342 5.342 0 0 0-.098 1.391zM25.363 40.835h-.348a7.735 7.735 0 0 1-7.652-6.63c.465.038.922.143 1.357.313a6.456 6.456 0 0 0 6.296 5.037h.34c-.04.425-.04.854 0 1.28" fill="#231815"/>
        <path d="M35.487 34.532a6.441 6.441 0 1 0-.119-2.143 6.522 6.522 0 0 0-1.259-.215 7.736 7.736 0 1 1 0 2.024c.465.054.92.166 1.357.334" fill="#E72741"/>
        <path d="M24.286 39.123a7.728 7.728 0 0 0-7.652-6.643h-.341c.038.426.038.854 0 1.28h.348a6.45 6.45 0 0 1 6.26 5.037c.447.174.915.286 1.392.333M24.3 41.14a7.722 7.722 0 1 1-10.003-8.298c.01.466-.027.932-.112 1.391a6.448 6.448 0 1 0 8.849 6.7c.411.113.833.183 1.26.208" fill="#F9B80E"/>
        <path d="M41.058 41.14a7.722 7.722 0 1 1-10.004-8.298c.037.465.007.934-.09 1.391a6.449 6.449 0 1 0 8.842 6.706c.409.11.829.178 1.252.202zM33.078 33.767h.341a6.449 6.449 0 0 1 6.296 5.044c.437.162.893.272 1.356.327a7.722 7.722 0 0 0-7.652-6.644h-.34c.04.426.04.855 0 1.28" fill="#094"/>
        <path d="M98.233 19.228v-6.039h-3.52v16.696h1.21c1.28 0 2.31-.8 2.31-2.845v-5.565h3.242v-2.268l-3.242.02zM83.41 21.315c0-2.018 1.023-3.66 2.282-3.66 1.259 0 2.288 1.642 2.288 3.66 0 2.017-1.022 3.652-2.288 3.652-1.266 0-2.282-1.635-2.282-3.652zm8.09.194a5.44 5.44 0 0 0-1.433-3.686h2.352v-2.206h-4.87v-2.393h-3.687v2.393h-4.779v2.206h2.22a5.481 5.481 0 0 0-1.44 3.686 5.808 5.808 0 1 0 11.617 0m-4.793 11.43a.925.925 0 0 1-.293-.696v-3.805h-3.52v4.174a3.186 3.186 0 0 0 .696 2.045 2.185 2.185 0 0 0 1.802.884h12.835v-2.33H87.457a1.078 1.078 0 0 1-.752-.265M110.457 24.619a13.048 13.048 0 0 1-.919-5.134v-1.711h3.374v-2.192h-3.374V13.19h-3.652v2.393h-3.388v2.192h3.388v1.662a12.944 12.944 0 0 1-.967 5.267 5.012 5.012 0 0 1-2.782 2.866v2.393a7.356 7.356 0 0 0 1.801-.557 7.884 7.884 0 0 0 1.642-.967 7.718 7.718 0 0 0 1.294-1.21c.319-.376.577-.798.765-1.253.168.46.426.88.759 1.239.401.467.856.885 1.356 1.245a9.262 9.262 0 0 0 1.725.98c.597.268 1.23.444 1.879.523V27.54a5.162 5.162 0 0 1-2.873-2.95m4.306-4.5h-3.263v2.281h3.263v13.155h1.071c1.273 0 2.31-.8 2.31-2.852V13.196h-3.395l.014 6.894zm4.834-6.957v22.393h1.079c1.28 0 2.316-.8 2.316-2.852V13.196l-3.395-.062zM137.301 21.224a2.51 2.51 0 0 1-3.265.838 2.536 2.536 0 0 1-.909-.803 4.352 4.352 0 0 1-.828-2.782c0-.493.073-.983.216-1.454.128-.44.33-.854.598-1.225.252-.336.566-.622.925-.841.361-.21.772-.318 1.19-.313a2.44 2.44 0 0 1 2.087 1.134c.552.79.838 1.735.813 2.699.03.978-.263 1.939-.834 2.734m.334 6.135h-4.807v-2.393h4.807v2.393zm8.146-2.379v-2.282h-5.865c.535-.553.964-1.199 1.266-1.906a5.965 5.965 0 0 0 0-4.556 5.89 5.89 0 0 0-1.3-1.927 6.655 6.655 0 0 0-2.032-1.336 6.556 6.556 0 0 0-2.608-.494 6.778 6.778 0 0 0-2.672.501 6.568 6.568 0 0 0-2.024 1.35 5.952 5.952 0 0 0-1.294 1.913 5.65 5.65 0 0 0-.459 2.26 5.9 5.9 0 0 0 .445 2.268c.291.73.737 1.387 1.308 1.927h-5.906v2.282h4.626v2.393h-2.358v2.4h12.751v5.767h1.35c1.203-.056 2.163-.876 2.163-2.845v-5.294h-1.983v-2.393l4.592-.028zM153.984 25.711a1.94 1.94 0 0 1-1.614-1.064 4.752 4.752 0 0 1-.696-2.72 5.141 5.141 0 0 1 .696-2.887 2.013 2.013 0 0 1 1.607-1.1 1.969 1.969 0 0 1 1.642 1.114c.494.874.735 1.87.695 2.873a4.64 4.64 0 0 1-.744 2.734 2.047 2.047 0 0 1-1.6 1.05m9.043-12.521v14.685c-.758.793-2.281 1.002-2.977 1.002h-4.306v-1.239a6.17 6.17 0 0 0 2.873-1.975 5.61 5.61 0 0 0 1.224-3.736 5.278 5.278 0 0 0-.494-2.317 6.877 6.877 0 0 0-1.245-1.836h2.477v-2.191h-4.759V13.19h-3.645v2.393h-4.654v2.19h2.303a6.26 6.26 0 0 0-1.231 1.837 6.146 6.146 0 0 0 .751 6.053 6 6 0 0 0 2.908 1.975v1.238h-5.148V31.2h11.972a5.808 5.808 0 0 0 3.951-1.252v5.565h1.218c1.273 0 2.309-.8 2.309-2.852V13.183l-3.527.007zM73.225 13.19v6.956h-1.69v-6.957h-3.402v13.49c-.751.792-2.282 1-2.977 1h-4.25c-.297.02-.591-.06-.836-.229a.827.827 0 0 1-.285-.695v-9.948h6.63v-2.15H56.258v12.355a3.138 3.138 0 0 0 .786 2.129 2.51 2.51 0 0 0 1.955.897h5.224a5.815 5.815 0 0 0 3.91-1.245v6.734h1.12c1.28 0 2.317-.8 2.317-2.852v-10.24h1.69v13.092h1.078c1.28 0 2.317-.8 2.317-2.852V13.196l-3.43-.006z" fill="#231815"/>
    </g>
    <defs>
        <radialGradient id="aiisntuece" cx="0" cy="0" r="1" gradientUnits="userSpaceOnUse" gradientTransform="translate(22.834 14.088) scale(18.2492)">
            <stop stop-color="#EB6100"/>
            <stop offset=".51" stop-color="#E60012"/>
            <stop offset="1" stop-color="#B81C22"/>
        </radialGradient>
        <radialGradient id="c338330p4g" cx="0" cy="0" r="1" gradientUnits="userSpaceOnUse" gradientTransform="translate(25.674 8.053) scale(11.7103)">
            <stop stop-color="#00B2ED"/>
            <stop offset=".5" stop-color="#006BB9"/>
            <stop offset="1" stop-color="#004294"/>
        </radialGradient>
        <linearGradient id="5z4zqgd3cc" x1="11.574" y1="18.8" x2="41.012" y2="3.866" gradientUnits="userSpaceOnUse">
            <stop stop-color="#00B2ED"/>
            <stop offset=".1" stop-color="#00B2ED"/>
            <stop offset=".4" stop-color="#006BB9"/>
            <stop offset="1" stop-color="#004294"/>
        </linearGradient>
        <clipPath id="62cufqzgka">
            <path fill="#fff" d="M0 0h168v48H0z"/>
        </clipPath>
    </defs>
</svg>
