<svg width="132" height="40" viewBox="0 0 132 40" fill="none" xmlns="http://www.w3.org/2000/svg">
    <g clip-path="url(#xt8okmg96a)" fill="#fff" fill-opacity=".7">
        <path d="M38.747 35.715a1.335 1.335 0 1 1-1.336-1.257 1.268 1.268 0 0 1 1.336 1.257zm-1.336-.846a.846.846 0 1 0 .89.846.835.835 0 0 0-.89-.846zm-.556 4.814v-1.297h3.088v-.59h-3.088v-.35h3.528v1.297h-3.066v.59h3.188v.35h-3.65zm3.1-2.51v-2.888h.422v2.888h-.422zM43.766 37.763v1.992h-.434v-1.981h-2.293v-.39h5.008v.39l-2.281-.011zm1.67-.902a3.964 3.964 0 0 1-1.147-.556 2.632 2.632 0 0 1-.74-.813c-.19.318-.442.594-.74.813-.352.246-.74.434-1.152.556l-.284-.328a3.577 3.577 0 0 0 1.208-.556 1.87 1.87 0 0 0 .734-.969v-.083h-1.67v-.39h3.757v.39h-1.67v.083c.13.395.386.735.73.968.365.26.777.449 1.213.557l-.24.328zM49.247 35.715a1.335 1.335 0 1 1-1.336-1.257 1.268 1.268 0 0 1 1.336 1.257zm-1.336-.846a.846.846 0 1 0 .89.846.835.835 0 0 0-.89-.846zm-.556 4.814v-1.297h3.088v-.59h-3.088v-.35h3.528v1.297h-3.066v.59h3.188v.35h-3.65zm3.1-2.51v-2.888h.422v2.888h-.422zM54.74 39.5v-2.594h-.674c-.033 1.147-.495 1.853-1.146 1.853-.651 0-1.147-.757-1.147-1.975 0-1.219.485-1.987 1.147-1.987s1.068.635 1.113 1.67h.706v-2.082h.418v5.092l-.417.022zm-1.815-4.28c-.45 0-.717.684-.717 1.575 0 .89.267 1.57.717 1.57.451 0 .713-.685.713-1.57s-.273-1.575-.713-1.575zm2.827 4.524v-5.459h.412v5.47l-.412-.01zM61.34 38.642a3.29 3.29 0 0 1-.64-.707 3.529 3.529 0 0 1-.457-.985 3.293 3.293 0 0 1-.384.896c-.206.35-.463.667-.762.94l-.35-.26a3.56 3.56 0 0 0 .923-1.18 3.778 3.778 0 0 0 .356-1.614v-.985h.44v1.024a3.55 3.55 0 0 0 .44 1.775c.192.326.44.616.734.857l-.3.239zm.7.846v-2.883h-.94v-.395h.94v-1.814h.418v5.092h-.417zm1.047.267v-5.46h.417v5.46h-.417zM70.132 38.264v-2.137h-1.28v1.219h-2.426v-2.783h.417v.99h1.575v-.99h.423v1.186h1.28v-1.447h.423v3.979l-.412-.017zm-1.703-2.343h-1.575v1.052h1.575V35.92zm-1.386 3.7v-1.669h.434v1.28h3.2v.384l-3.634.006zM74.937 38.72c-.796 0-1.308-.79-1.308-2.003s.512-2.003 1.308-2.003c.795 0 1.302.79 1.302 2.003s-.507 2.003-1.302 2.003zm0-3.589c-.557 0-.885.723-.885 1.58 0 .857.317 1.598.885 1.598.567 0 .879-.73.879-1.598 0-.868-.306-1.58-.874-1.58h-.005zm2.476 4.613v-5.459h.428v5.47l-.428-.01zM81.68 37.251a2.91 2.91 0 0 1-.935-.684 2.46 2.46 0 0 1-.518-.768c-.118.33-.308.63-.556.879-.249.28-.54.521-.863.712l-.3-.3a3.51 3.51 0 0 0 1.007-.835c.305-.39.471-.87.473-1.364v-.44h.44v.44c-.009.457.152.901.45 1.247a2.7 2.7 0 0 0 1.063.774l-.261.339zm-.445 2.599c-1.214 0-1.814-.445-1.814-1.074 0-.63.6-1.074 1.814-1.074 1.213 0 1.803.45 1.803 1.074 0 .623-.601 1.074-1.803 1.074zm0-1.781c-.835 0-1.358.267-1.358.718 0 .45.523.701 1.358.701.834 0 1.33-.29 1.33-.701 0-.412-.518-.701-1.325-.701l-.005-.017zm1.669-1.987v1.52h-.423v-3.34h.423v1.409h.773v.39l-.773.021zM84.634 39.304c0 .162-.05.32-.145.451a.752.752 0 0 1-.34.245l-.15-.195a.395.395 0 0 0 .345-.334h-.356v-.595h.646v.428zM87.406 35.97v-.389h3.128v.39h-3.128zm1.575 2.984a1.247 1.247 0 0 1 0-2.493 1.264 1.264 0 0 1 1.313 1.246 1.275 1.275 0 0 1-1.313 1.247zm0-2.104a.856.856 0 1 0 .874.857.835.835 0 0 0-.874-.857zm-.823-1.853v-.39h1.641v.39h-1.642zm3.427 1.575h.813v.4h-.813v2.783h-.428v-5.46h.428v2.277zM95.214 38.019v1.736h-.406V38.03h-2.304v-.384h5.008v.384l-2.298-.011zm-2.014-.974v-1.458h3.1v-.701h-3.117v-.384h3.54v1.463h-3.1v.696H96.9v.384h-3.7zM102.502 37.963a1.317 1.317 0 0 1-1.391 1.336 1.353 1.353 0 0 1-1.38-1.392h.367a.998.998 0 0 0 .294.726.993.993 0 0 0 .73.282.92.92 0 0 0 .889-.587.937.937 0 0 0-.129-.91.905.905 0 0 0-.476-.318 3.484 3.484 0 0 0-.556-.038v-.368c.187.011.375-.008.556-.055a.816.816 0 0 0 .557-.796.803.803 0 0 0-.245-.598.789.789 0 0 0-.607-.22.812.812 0 0 0-.624.238.81.81 0 0 0-.238.624h-.373a1.19 1.19 0 0 1 1.252-1.235 1.221 1.221 0 0 1 1.235 1.185 1.078 1.078 0 0 1-.556 1.007 1.276 1.276 0 0 1 .695 1.12zM105.739 36.972c0 1.347-.517 2.304-1.458 2.304-.94 0-1.441-.957-1.441-2.304 0-1.346.501-2.292 1.441-2.292.941 0 1.458.951 1.458 2.292zm-.439 0c0-1.113-.351-1.908-1.019-1.908-.668 0-1.007.823-1.007 1.908s.35 1.915 1.007 1.915c.657 0 1.019-.802 1.019-1.915zM108.877 37.618v1.174h-.428v-1.174h-2.371v-.384h5.008v.384h-2.209zm-2.114-.962V34.43h.423v.662h2.81v-.662h.423v2.226h-3.656zm0 2.966v-1.47h.428v1.086h3.395v.384h-3.823zm3.233-4.185h-2.81v.846h2.81v-.846zM116.105 37.479v1.235h-.429V37.48h-2.348v-.384h5.008v.384h-2.231zm-.262-.996c-1.224 0-1.897-.473-1.897-1.113s.673-1.113 1.897-1.113c1.225 0 1.887.473 1.887 1.113s-.662 1.113-1.887 1.113zm-1.83 3.138V38.12h.428v1.113h3.395v.384l-3.823.005zm1.83-3.506c.846 0 1.436-.322 1.436-.745s-.584-.746-1.436-.746c-.851 0-1.441.306-1.441.74s.584.752 1.441.752zM118.574 37.351v-.378h2.287v-.735h-1.602v-1.736h3.661v.384h-3.238v.974h3.294v.384h-1.669v.729h2.298v.384l-5.031-.006zm2.516 2.504c-1.247 0-1.943-.44-1.943-1.035s.696-1.035 1.943-1.035c1.246 0 1.936.434 1.936 1.035s-.69 1.035-1.936 1.035zm0-.372c.857 0 1.463-.262 1.463-.663 0-.4-.606-.667-1.463-.667-.857 0-1.475.244-1.475.662 0 .417.595.668 1.475.668zM56.7 7.48v4.284h10.817l-.523.997h-1.948l-7.24 16.36h5.092L72.314 7.48H56.7zM88.65 7.48H75.077v4.451h5.91l-3.34 5.732c4.558.412 5.671 2.165 5.671 3.862 0 1.347-.873 2.983-2.687 2.983-1.642 0-2.75-.935-2.75-3.217h-4.858c.062 4.914 3.278 7.791 7.608 7.791 5.086 0 7.54-3.684 7.54-7.546 0-2.454-2.042-4.914-4.035-6.02l4.508-8.014.005-.023zM106.101 7.48H92.528v4.451h5.91L95.1 17.663c4.563.412 5.671 2.165 5.671 3.862 0 1.347-.88 2.983-2.688 2.983-1.642 0-2.749-.935-2.749-3.217h-4.852c.055 4.914 3.272 7.791 7.601 7.791 5.086 0 7.54-3.684 7.54-7.546 0-2.454-2.042-4.914-4.034-6.02l4.507-8.014.006-.023zM115.565 20.635a4.02 4.02 0 0 0 3.721-2.48 4.023 4.023 0 1 0-3.721 2.48z"/>
        <path d="M129.566 6.166a1.668 1.668 0 0 0-2.226.712l-2.532 4.958c-.094-2.582-.69-7.74-3.801-11.274a1.668 1.668 0 0 0-2.47 2.17 10.938 10.938 0 0 1 2.137 4.029c-1.87-1.77-5.103-3.578-10.674-4.535a1.669 1.669 0 1 0-.556 3.238c2.002.31 3.958.872 5.82 1.67a9.5 9.5 0 0 0-9.209 9.46 1.633 1.633 0 0 0 .481 1.16 1.635 1.635 0 0 0 1.789.357 1.635 1.635 0 0 0 .888-.889c.082-.199.125-.412.125-.628a6.198 6.198 0 0 1 2.183-4.642 6.216 6.216 0 0 1 4.931-1.415 6.208 6.208 0 0 1 5.067 7.849.661.661 0 0 0-.044.145 6.213 6.213 0 0 1-8.161 3.86 6.211 6.211 0 0 1-2.663-1.996 1.661 1.661 0 0 0-1.12-.863 1.668 1.668 0 0 0-1.484 2.866 9.494 9.494 0 0 0 16.566-2.9l5.682-11.129a1.666 1.666 0 0 0-.712-2.226l-.017.023zM27.915 19.861h5.932v-2.782h-2.143v-5.66h2.27V8.637H18.767v2.782h2.27v5.67h-2.142v2.783h5.949v3.189h-6.878v2.782h16.872v-2.782h-6.922v-3.2zm-3.807-2.782v-5.66h5.95l-.53.824h-.895v4.847l-4.525-.011zM8.375 13.779c.823 1.67 3.895 4.351 7.234 5.431l1.23-2.66c-4.563-.93-6.817-4.853-6.834-7.112h.607l.523-.874H6.778V9.4c0 2.098-2.098 6.36-6.489 7.118l1.447 2.682c3.094-1.007 5.86-3.795 6.639-5.42zM16.878 23.06H0v2.772h16.878V23.06zM52.8 23.06H36.013v2.772H52.8V23.06zM42.382 13.044c-.556 1.447-2.31 3.673-5.765 4.063l1.23 2.704c3.205-.779 5.82-3.094 6.578-4.502.823 1.325 3.656 3.7 6.75 4.524l1.235-2.682c-4.151-.651-5.904-3.767-6.015-4.975h5.086V9.394h-5.41V8.32h.59l.524-.88h-4.319v1.948h-5.375v2.783h6.305l-.512.873h-.902z"/>
    </g>
    <defs>
        <clipPath id="xt8okmg96a">
            <path fill="#fff" d="M0 0h132v40H0z"/>
        </clipPath>
    </defs>
</svg>
